<svg width="28" height="27" viewBox="0 0 28 27" fill="none" xmlns="http://www.w3.org/2000/svg">
<g id="Github">
<path id="Vector" d="M14.1073 1.1775C10.9315 1.14523 7.87283 2.3752 5.60348 4.5971C3.33413 6.819 2.03981 9.85102 2.00497 13.0268C2.01721 15.5366 2.82457 17.9779 4.31109 20.0001C5.79761 22.0223 7.8868 23.5214 10.2786 24.282C10.8837 24.392 11.1037 24.0289 11.1037 23.7099C11.1037 23.3908 11.1037 22.6867 11.1037 21.6965C7.73709 22.4116 7.02195 20.1122 7.02195 20.1122C6.79783 19.3903 6.32137 18.7733 5.67969 18.3738C4.57947 17.6477 5.7677 17.6587 5.7677 17.6587C6.14799 17.7095 6.51184 17.8458 6.83195 18.0573C7.15206 18.2688 7.42013 18.5501 7.61606 18.8799C7.95749 19.472 8.51772 19.9063 9.17618 20.0894C9.83463 20.2726 10.5387 20.1899 11.1367 19.8591C11.1983 19.2566 11.4711 18.6954 11.9069 18.2748C9.22237 17.9778 6.40583 16.9656 6.40583 12.4217C6.38182 11.2364 6.81977 10.0882 7.62706 9.22006C7.2594 8.20244 7.30282 7.08159 7.74809 6.09545C7.74809 6.09545 8.77129 5.77639 11.0487 7.30569C13.0312 6.77741 15.1174 6.77741 17.0999 7.30569C19.4103 5.77639 20.4005 6.09545 20.4005 6.09545C20.8458 7.08159 20.8892 8.20244 20.5216 9.22006C21.3476 10.0723 21.8093 11.2128 21.8088 12.3997C21.8088 16.9546 18.9703 17.9558 16.3077 18.2528C16.5993 18.5359 16.8245 18.88 16.9672 19.2605C17.1098 19.6409 17.1664 20.0483 17.1329 20.4532V23.6989C17.1329 23.6989 17.3529 24.392 17.9581 24.271C20.3431 23.5057 22.4252 22.0063 23.9071 19.9869C25.389 17.9675 26.1949 15.5315 26.2097 13.0268C26.1748 9.85102 24.8805 6.819 22.6112 4.5971C20.3418 2.3752 17.2831 1.14523 14.1073 1.1775Z" fill="white"/>
</g>
</svg>
