<svg width="25" height="25" viewBox="0 0 25 19" fill="none" xmlns="http://www.w3.org/2000/svg">
<g id="Gmail">
<path id="Vector" d="M2.23336 19H6.05656V9.71522L0.594879 5.61893V17.3615C0.594879 18.2682 1.32948 19 2.23336 19Z" fill="white"/>
<path id="Vector_2" d="M19.1643 19H22.9875C23.8941 19 24.6259 18.2654 24.6259 17.3615V5.61893L19.1643 9.71522" fill="white"/>
<path id="Vector_3" d="M19.1643 2.61514V9.7153L24.6259 5.61902V3.43438C24.6259 1.40808 22.3129 0.252929 20.6936 1.46815" fill="white"/>
<path id="Vector_4" d="M6.05612 9.71516V2.61501L12.6101 7.53048L19.1641 2.61501V9.71516L12.6101 14.6307" fill="white"/>
<path id="Vector_5" d="M0.594879 3.43438V5.61902L6.05656 9.7153V2.61514L4.52729 1.46815C2.90517 0.252929 0.594879 1.40808 0.594879 3.43438Z" fill="white"/>
</g>
</svg>
