<svg width="28" height="24" viewBox="0 0 26 27" fill="none" xmlns="http://www.w3.org/2000/svg">
<g>
<path id="Linkedin" d="M5.81982 27H0.429464V8.97348H5.81982V27ZM3.12174 6.5145C1.39808 6.5145 0 5.03188 0 3.24188C1.23372e-08 2.38208 0.328897 1.5575 0.914337 0.949525C1.49978 0.341554 2.2938 0 3.12174 0C3.94968 0 4.74371 0.341554 5.32915 0.949525C5.91459 1.5575 6.24348 2.38208 6.24348 3.24188C6.24348 5.03188 4.84482 6.5145 3.12174 6.5145ZM25.9942 27H20.6154V18.2248C20.6154 16.1335 20.5748 13.4515 17.8129 13.4515C15.0104 13.4515 14.5809 15.7236 14.5809 18.0741V27H9.19634V8.97348H14.3662V11.4325H14.4416C15.1612 10.0161 16.9192 8.52146 19.5418 8.52146C24.9971 8.52146 26 12.2521 26 17.0978V27H25.9942Z" fill="white"/>
</g>
</svg>
